<?xml version="1.0" encoding="utf-8"?>
<!-- Generator: Adobe Illustrator 19.0.1, SVG Export Plug-In . SVG Version: 6.00 Build 0)  -->
<svg version="1.1" id="Layer_1" xmlns="http://www.w3.org/2000/svg" xmlns:xlink="http://www.w3.org/1999/xlink" x="0px" y="0px"
	 viewBox="-375 358.8 527.4 84.2" style="enable-background:new -375 358.8 527.4 84.2;" xml:space="preserve">
<style type="text/css">
	.st0{fill:#333333;}
</style>
<g>
	<path class="st0" d="M-322.4,390.1c-3.4,0-5.1,1.7-5.1,5.1V433c0,3.4,1.7,5.1,5.1,5.1h2.4v2c-3.1,0.7-8.2,1.1-15.2,1.1
		c-12.3,0-18.4-6.1-18.4-18.2v-27.8c0-3.4-1.7-5.1-5.1-5.1h-2.4v-2h2.4c15.9,0,25.6-8.5,29.1-25.6h2V383c0,3.4,1.7,5.1,5.1,5.1h2.4
		v2H-322.4z"/>
	<path class="st0" d="M-309.7,395.3c0-3.4-1.7-5.1-5.1-5.1h-2.4v-2h33.6V433c0,3.4,1.7,5.1,5.1,5.1h2.4v2h-41.1v-2h2.4
		c3.4,0,5.1-1.7,5.1-5.1V395.3z M-287.5,363.8c2.6,2.5,3.8,5.6,3.8,9.2c0,3.6-1.3,6.7-3.8,9.2c-2.6,2.6-5.6,3.8-9.2,3.8
		c-3.6,0-6.7-1.3-9.2-3.8c-2.5-2.6-3.8-5.6-3.8-9.2c0-3.6,1.3-6.7,3.8-9.2c2.5-2.5,5.6-3.8,9.2-3.8
		C-293.1,360-290,361.2-287.5,363.8z"/>
	<path class="st0" d="M-201.7,400.3v35.4c0,1.6,0.8,2.4,2.4,2.4h2.4v2h-35.7v-2h2.4c1.6,0,2.4-0.8,2.4-2.4v-36.4
		c-0.4-5.7-1.9-8.6-4.5-8.6c-2.2,0-4,1-5.4,2.9c-1.4,1.9-2.1,4.5-2.1,7.7v34.3c0,1.6,0.8,2.4,2.4,2.4h2.4v2h-38.4v-2h2.4
		c3.4,0,5.1-1.7,5.1-5.1v-37.7c0-3.4-1.7-5.1-5.1-5.1h-2.4v-2h33.6v5c1.7-2.8,4.1-4.8,7.2-6.1c3-1.2,6.9-1.8,11.6-1.8
		c5.2,0,9.7,1.7,13.6,5.1c1.8,1.6,3.2,3.9,4.3,6.6c0.4-1.4,0.8-2.7,1.4-3.9c1.7-2.8,4.1-4.8,7.2-6.1c3-1.2,6.9-1.8,11.6-1.8
		c5.2,0,9.7,1.7,13.6,5.2c3.8,3.4,5.7,8,5.7,13.6v29c0,3.4,1.7,5.1,5.1,5.1h2.4v2h-38.4v-2h2.4c1.6,0,2.4-0.8,2.4-2.4v-36.4
		c-0.4-5.7-1.9-8.6-4.5-8.6c-2.2,0-4,1-5.4,2.9C-200.8,395.2-201.5,397.5-201.7,400.3z"/>
	<path class="st0" d="M-126.2,414.3c0,8.1,1.2,14.7,3.7,19.6c2.5,4.9,6.6,6.7,12.4,5.2c8.3-1.6,14.3-7,17.9-16h2.2
		c-1.5,5.4-4.4,9.9-8.8,13.7c-4.3,4.2-11.1,6.3-20.5,6.3c-9.7,0-17.6-2.8-23.7-8.4c-6.1-5.6-9.1-12.4-9.1-20.3
		c0-8.2,3.1-15.1,9.2-20.7c1.6-1.5,3.3-2.7,5.1-3.8l-0.1-0.1c5-3,10.7-4.5,17-4.5c8.6,0,16,2.8,22,8.4c6.1,5.6,9.1,12.5,9.1,20.6
		H-126.2z M-120.8,387c-1.9,0-3.2,1.6-4,4.9c-0.8,3.3-1.3,10.1-1.4,20.4h10.7c-0.1-10.4-0.6-17.2-1.3-20.2
		C-117.6,388.9-118.9,387.3-120.8,387z"/>
	<path class="st0" d="M-76.5,365.9c0-3.4-1.7-5.1-5.1-5.1H-84v-2h33.6V391c2.1-3.9,6.4-5.8,12.7-5.8c7.5,0,13.6,2.5,18.3,7.6
		s7,12.2,7,21.5c0,9-2.3,16-7,21.1s-11.1,7.6-19.4,7.6c-5.5,0-10.6-1-15.2-2.9c-4.5-2.9-9.1-4.4-13.8-4.6c-4.7-0.2-7,1.3-7,4.6h-1.8
		V365.9z M-50.4,434.5c0,3.4,1.9,5.1,5.6,5.1c3.1,0,5.1-1.7,5.9-5.2c0.8-3.5,1.2-10.2,1.2-20.1c0-9.1-0.3-15.4-0.9-18.9
		c-0.6-3.5-2.5-5.2-5.7-5.2c-3.5,0.4-5.6,2.5-6.2,6.3V434.5z"/>
	<path class="st0" d="M46.2,393.6c6.1,5.6,9.1,12.5,9.1,20.6c0,7.9-3,14.7-9.1,20.3c-6.1,5.6-13.4,8.4-22,8.4
		c-8.6,0-16-2.8-22.1-8.4c-6.1-5.6-9.1-12.4-9.1-20.3c0-8.2,3-15.1,9.1-20.6c6.1-5.6,13.5-8.4,22.1-8.4
		C32.8,385.3,40.1,388.1,46.2,393.6z M24.2,387c-1.5,0-2.8,2.6-3.8,7.8c-1,5.2-1.6,11.7-1.6,19.4c0,7.4,0.5,13.8,1.6,19
		c1,5.3,2.3,7.9,3.8,7.9c1.5,0,2.7-2.6,3.8-7.9c1.1-5.3,1.6-11.6,1.6-19c0-7.7-0.5-14.2-1.6-19.4C26.9,389.6,25.6,387,24.2,387z"/>
	<path class="st0" d="M90.3,418.4L76.6,432c-3.6,4-3.6,6.1,0.1,6.1H79v2H60.4v-2h2.4c3,0,6.4-1.7,10.1-5l16.3-16.2l-16-21.6
		c-2.5-3.4-5.4-5-8.8-5H62v-2h41.1v2h-2.4c-3.4,0-3.9,1.7-1.4,5l9.5,12.9l11.9-11.9c3.6-4,2.7-6-2.8-6h-2.4v-2h21.3v2h-2.4
		c-3,0-6.4,1.6-10.1,4.9l-14.5,14.5l17.3,23.5c2.5,3.4,5.5,5,8.9,5h2.4v2H97.4v-2h2.4c3.4,0,3.8-1.7,1.3-5L90.3,418.4z"/>
</g>
</svg>
