<?xml version="1.0" encoding="utf-8"?>
<!-- Generator: Adobe Illustrator 19.0.1, SVG Export Plug-In . SVG Version: 6.00 Build 0)  -->
<svg version="1.1" id="Layer_1" xmlns="http://www.w3.org/2000/svg" xmlns:xlink="http://www.w3.org/1999/xlink" x="0px" y="0px"
	 viewBox="0 0 527.4 84.2" style="enable-background:new 0 0 527.4 84.2;" xml:space="preserve">
<style type="text/css">
	.st0{fill:#333333;}
	.st1{fill:#00FFF2;}
	.st2{fill:#FFFF00;}
	.st3{fill:#CD00FF;}
	.st4{fill:#00FF00;}
	.st5{fill:#FF007A;}
</style>
<g>
	<g>
		<path class="st0" d="M38.7,31.3c-3.4,0-5.1,1.7-5.1,5.1v37.8c0,3.4,1.7,5.1,5.1,5.1h2.4v2c-3.1,0.7-8.2,1.1-15.2,1.1
			c-12.3,0-18.4-6.1-18.4-18.2V36.4c0-3.4-1.7-5.1-5.1-5.1H0v-2h2.4c15.9,0,25.6-8.5,29.1-25.6h2v20.5c0,3.4,1.7,5.1,5.1,5.1h2.4v2
			H38.7z"/>
		<path class="st0" d="M51.4,36.5c0-3.4-1.7-5.1-5.1-5.1h-2.4v-2h33.6v44.8c0,3.4,1.7,5.1,5.1,5.1H85v2H43.9v-2h2.4
			c3.4,0,5.1-1.7,5.1-5.1V36.5z M73.6,5c2.6,2.5,3.8,5.6,3.8,9.2c0,3.6-1.3,6.7-3.8,9.2c-2.6,2.6-5.6,3.8-9.2,3.8
			c-3.6,0-6.7-1.3-9.2-3.8c-2.5-2.6-3.8-5.6-3.8-9.2c0-3.6,1.3-6.7,3.8-9.2c2.5-2.5,5.6-3.8,9.2-3.8C68,1.2,71.1,2.4,73.6,5z"/>
		<path class="st0" d="M121.3,42.5v34.3c0,1.6,0.8,2.4,2.4,2.4h2.4v2H87.7v-2h2.4c3.4,0,5.1-1.7,5.1-5.1V36.5c0-3.4-1.7-5.1-5.1-5.1
			h-2.4v-2h33.6v5c1.7-2.8,4.1-4.8,7.2-6.1c3-1.2,6.9-1.8,11.6-1.8c5.2,0,9.7,1.7,13.6,5.2c3.8,3.4,5.7,8,5.7,13.6v29
			c0,3.4,1.7,5.1,5.1,5.1h2.4v2h-38.4v-2h2.4c1.6,0,2.4-0.8,2.4-2.4V40.4c-0.4-5.7-1.9-8.6-4.5-8.6c-2.2,0-4,1-5.4,2.9
			C122,36.7,121.3,39.3,121.3,42.5z"/>
		<path class="st0" d="M177.2,7.1c0-3.4-1.7-5.1-5.1-5.1h-2.4V0h33.6v32.2c2.1-3.9,6.4-5.8,12.7-5.8c7.5,0,13.6,2.5,18.3,7.6
			s7,12.2,7,21.5c0,9-2.3,16-7,21.1s-11.1,7.6-19.4,7.6c-5.5,0-10.6-1-15.2-2.9c-4.5-2.9-9.1-4.4-13.8-4.6c-4.7-0.2-7,1.3-7,4.6
			h-1.8V7.1z M203.3,75.7c0,3.4,1.9,5.1,5.6,5.1c3.1,0,5.1-1.7,5.9-5.2c0.8-3.5,1.2-10.2,1.2-20.1c0-9.1-0.3-15.4-0.9-18.9
			c-0.6-3.5-2.5-5.2-5.7-5.2c-3.5,0.4-5.6,2.5-6.2,6.3V75.7z"/>
		<path class="st0" d="M299.9,34.8c6.1,5.6,9.1,12.5,9.1,20.6c0,7.9-3,14.7-9.1,20.3c-6.1,5.6-13.4,8.4-22,8.4
			c-8.6,0-16-2.8-22.1-8.4c-6.1-5.6-9.1-12.4-9.1-20.3c0-8.2,3-15.1,9.1-20.6c6.1-5.6,13.5-8.4,22.1-8.4
			C286.5,26.5,293.8,29.3,299.9,34.8z M277.8,28.2c-1.5,0-2.8,2.6-3.8,7.8c-1,5.2-1.6,11.7-1.6,19.4c0,7.4,0.5,13.8,1.6,19
			c1,5.3,2.3,7.9,3.8,7.9c1.5,0,2.7-2.6,3.8-7.9c1.1-5.3,1.6-11.6,1.6-19c0-7.7-0.5-14.2-1.6-19.4C280.6,30.8,279.3,28.2,277.8,28.2
			z"/>
		<path class="st0" d="M352.2,79.1c-4.5,3.4-10.3,5.1-17.4,5.1c-5.6,0-10.7-1.4-15.1-4.1c-3.3-2.5-5-5.7-5-9.5
			c0-4.3,1.4-7.8,4.1-10.6c3.4-3.2,8.5-5.6,15.4-7.2c6.8-1.5,11.6-3.6,14.4-6.3c2.4-2.7,3.6-5.6,3.6-8.7c0-5.9-2.9-8.8-8.8-8.8
			c-3.3,0-6.4,0.5-9.2,1.6c-1.3,0.7-2,1.6-2,2.7c0,0.7,0.2,1.3,0.8,1.8c0.5,0.5,1.1,0.7,1.8,0.7c0.6,0,1.2-0.2,1.6-0.6
			c0.4-0.4,0.6-0.8,0.7-1.4c0.7-0.2,1.4,0,2.1,0.6c1.9,1.8,2.9,4.2,2.9,7.1c0,2.9-1.1,5.3-3.3,7.3c-2.2,2-4.8,3.1-7.8,3.1
			c-3.1,0-5.7-1.1-7.8-3.1c-2.1-2-3.2-4.5-3.2-7.4c0-1.9,0.3-3.7,1.1-5.4c2.1-3.5,5.5-6,10.3-7.4c4.8-1.4,9.5-2.1,14-2.1
			c22,0,33.1,8,33.1,23.9v23.8c0,3.4,1.7,5.1,5.1,5.1h2.4v2h-33.6V79.1z M352.2,74.8V46.2c-1.7,2.1-3.9,4.8-6.8,8.1
			c-3.2,3.4-4.9,7.8-4.9,13.2v5.6c0,4.2,1.7,6.3,5.2,6.3C348.7,78.9,350.9,77.4,352.2,74.8z"/>
		<path class="st0" d="M421.4,44.6v29.6c0,3.4,1.7,5.1,5.1,5.1h2.4v2h-41.1v-2h2.4c3.4,0,5.1-1.7,5.1-5.1V36.5
			c0-3.4-1.7-5.1-5.1-5.1h-2.4v-2h33.6V32c3-3.7,7.1-5.5,12.3-5.5c8.9,0,14.5,4.2,16.8,12.5c0.4,2,0.4,4.1,0.1,6.3
			c-0.6,3.2-2.4,5.7-5.2,7.4c-2.8,1.8-5.9,2.4-9.3,1.7c-3.4-0.7-6.1-2.4-8-5.1c-1.9-2.7-2.6-5.7-2-8.8c0.6-3.2,2.2-5.6,4.7-7.2
			c1-0.5,1.9-0.6,2.7-0.3c0,0.7,0.3,1.3,0.8,1.9c0.5,0.6,1.2,0.8,2,0.8c0.6,0,1.2-0.2,1.7-0.8c0.5-0.5,0.8-1.1,0.8-1.9
			c0-1-0.5-1.9-1.6-2.8c-1.1-0.8-2.3-1.3-3.8-1.3c-5,0-8.5,2.6-10.6,7.7C421.9,39,421.4,41.6,421.4,44.6z"/>
		<path class="st0" d="M493.8,7.1c0-3.4-1.7-5.1-5.1-5.1h-2.4V0h33.6v74.2c0,3.4,1.7,5.1,5.1,5.1h2.4v2h-33.6v-2.6
			c-2.6,3.7-7.1,5.5-13.3,5.5c-7.9,0-14-2.5-18.3-7.6c-4.3-5.1-6.5-12.1-6.5-21.1c0-9.2,2.3-16.4,7-21.5s10.8-7.6,18.3-7.6
			c6.4,0,10.6,1.9,12.7,5.8V7.1z M487.6,31.4c-3.1,0-5,1.7-5.7,5.2c-0.6,3.5-0.9,9.8-0.9,18.9c0,8.9,0.4,14.9,1.2,18.2
			c0.8,3.3,2.8,5,5.9,5c3.2,0,5.1-1.7,5.6-5.1V37.7C493.2,33.9,491.1,31.7,487.6,31.4z"/>
	</g>
	<g>
		<rect x="5.4" y="99.4" class="st1" width="43.9" height="4.1"/>
	</g>
	<g>
		<rect x="63.8" y="99.4" class="st2" width="43.9" height="4.1"/>
	</g>
	<g>
		<rect x="122.3" y="99.4" class="st3" width="43.9" height="4.1"/>
	</g>
	<g>
		<rect x="180.7" y="99.4" class="st4" width="43.9" height="4.1"/>
	</g>
	<g>
		<rect x="239.1" y="99.4" class="st5" width="43.9" height="4.1"/>
	</g>
</g>
</svg>
