<?xml version="1.0" encoding="utf-8"?>
<!-- Generator: Adobe Illustrator 19.0.1, SVG Export Plug-In . SVG Version: 6.00 Build 0)  -->
<svg version="1.1" id="Layer_1" xmlns="http://www.w3.org/2000/svg" xmlns:xlink="http://www.w3.org/1999/xlink" x="0px" y="0px"
	 viewBox="0 0 187.4 70" style="enable-background:new 0 0 187.4 70;" xml:space="preserve">
<style type="text/css">
	.st0{fill:#333333;}
	.st1{fill:#E6E6E6;}
</style>
<g>
	<rect class="st0" width="187.4" height="70"/>
</g>
<g>
	<path class="st1" d="M54.9,42.4V21.6h5.7v15.8H70v5H54.9z"/>
	<path class="st1" d="M79.3,42.7c-1.4,0-2.6-0.2-3.6-0.7s-1.9-1-2.6-1.8c-0.7-0.7-1.2-1.6-1.6-2.5c-0.4-1-0.5-2-0.5-3s0.2-2.1,0.5-3
		c0.4-1,0.9-1.8,1.6-2.5c0.7-0.7,1.6-1.3,2.6-1.8c1-0.4,2.3-0.7,3.6-0.7c1.4,0,2.6,0.2,3.6,0.7c1.1,0.4,1.9,1,2.6,1.8
		c0.7,0.7,1.2,1.6,1.6,2.5c0.4,1,0.5,2,0.5,3s-0.2,2.1-0.5,3c-0.4,1-0.9,1.8-1.6,2.5S84,41.6,82.9,42C81.9,42.5,80.7,42.7,79.3,42.7
		z M76.6,34.7c0,1,0.3,1.8,0.8,2.4s1.2,0.9,2,0.9s1.5-0.3,2-0.9s0.8-1.4,0.8-2.4s-0.3-1.8-0.8-2.4c-0.5-0.6-1.2-0.9-2-0.9
		s-1.5,0.3-2,0.9C76.8,32.9,76.6,33.7,76.6,34.7z"/>
	<path class="st1" d="M95.6,42.4c-1,0-1.9-0.2-2.7-0.6c-0.8-0.4-1.5-0.9-2.1-1.6s-1-1.5-1.4-2.4c-0.3-0.9-0.5-2-0.5-3
		c0-1.2,0.2-2.2,0.5-3.2c0.4-1,0.8-1.8,1.5-2.5c0.6-0.7,1.4-1.3,2.3-1.7c0.9-0.4,1.8-0.6,2.9-0.6c1.1,0,2.1,0.2,2.9,0.7
		c0.8,0.4,1.5,1.1,2,1.9V27h4.8v14c0,1.2-0.2,2.3-0.7,3.3c-0.4,1-1.1,1.8-1.9,2.5c-0.8,0.7-1.8,1.2-3,1.6c-1.2,0.4-2.4,0.6-3.8,0.6
		c-1.6,0-3.1-0.3-4.3-0.8C91,47.7,89.9,46.9,89,46l2.9-3c0.6,0.5,1.2,1,2,1.3c0.8,0.4,1.6,0.5,2.5,0.5c0.5,0,1-0.1,1.4-0.2
		c0.5-0.1,0.9-0.4,1.2-0.7c0.4-0.3,0.6-0.7,0.8-1.2s0.3-1.1,0.3-1.8v-1c-0.4,0.8-1.1,1.4-1.9,1.8C97.5,42.2,96.6,42.4,95.6,42.4z
		 M97.6,38c0.6,0,1.1-0.1,1.5-0.4c0.4-0.3,0.8-0.7,1.2-1.2v-2.7C100,33,99.6,32.4,99,32c-0.5-0.4-1.1-0.6-1.7-0.6
		c-0.4,0-0.8,0.1-1.1,0.3c-0.3,0.2-0.6,0.4-0.9,0.7c-0.3,0.3-0.4,0.7-0.6,1.1s-0.2,0.9-0.2,1.3c0,1,0.3,1.7,0.8,2.3S96.7,38,97.6,38
		z"/>
	<path class="st1" d="M108.6,25.7v-4.7h5.6v4.7H108.6z M108.6,42.4V27h5.6v15.4H108.6z"/>
	<path class="st1" d="M132.5,42.4h-5.6v-8.7c0-0.8-0.2-1.3-0.5-1.7c-0.3-0.3-0.7-0.5-1.2-0.5c-0.5,0-1,0.2-1.5,0.6
		c-0.5,0.4-0.9,0.9-1.2,1.6v8.6H117V27h5v2.3c0.5-0.8,1.3-1.5,2.3-1.9c1-0.4,2.1-0.7,3.5-0.7c1.1,0,1.9,0.2,2.5,0.6
		c0.6,0.4,1.1,0.9,1.4,1.4c0.3,0.6,0.5,1.2,0.6,1.8c0.1,0.6,0.1,1.2,0.1,1.8V42.4z"/>
</g>
</svg>
