<?xml version="1.0" encoding="utf-8"?>
<!-- Generator: Adobe Illustrator 19.0.1, SVG Export Plug-In . SVG Version: 6.00 Build 0)  -->
<svg version="1.1" id="Layer_1" xmlns="http://www.w3.org/2000/svg" xmlns:xlink="http://www.w3.org/1999/xlink" x="0px" y="0px"
	 viewBox="0 0 182.9 71.5" style="enable-background:new 0 0 182.9 71.5;" xml:space="preserve">
<style type="text/css">
	.st0{fill:#333333;}
</style>
<g>
	<g>
		<path class="st0" d="M182.9,71.5H0V0h182.9V71.5z M5,66.5h172.9V5H5V66.5z"/>
	</g>
	<g>
		<path class="st0" d="M45.3,46.7V25.9h9c1,0,2,0.2,2.8,0.6c0.9,0.4,1.6,1,2.2,1.6s1.1,1.4,1.4,2.3c0.4,0.9,0.5,1.7,0.5,2.6
			c0,0.9-0.2,1.8-0.5,2.7c-0.3,0.9-0.8,1.6-1.4,2.3s-1.3,1.2-2.2,1.6c-0.8,0.4-1.8,0.6-2.8,0.6H51v6.4H45.3z M51,35.3h3
			c0.4,0,0.7-0.2,1-0.5s0.5-0.9,0.5-1.7c0-0.9-0.2-1.4-0.5-1.8c-0.4-0.3-0.7-0.5-1.1-0.5H51V35.3z"/>
		<path class="st0" d="M73.5,36c-1.1,0-2,0.1-2.9,0.4c-0.9,0.2-1.5,0.6-2,1.2v9.1H63V31.3h5.1v2.9c0.5-1,1.2-1.8,2-2.4
			c0.8-0.6,1.7-0.8,2.6-0.8c0.4,0,0.6,0,0.7,0V36z"/>
		<path class="st0" d="M82.7,47c-1.4,0-2.6-0.2-3.6-0.7c-1-0.4-1.9-1-2.6-1.8c-0.7-0.7-1.2-1.6-1.6-2.5c-0.4-1-0.5-2-0.5-3
			c0-1.1,0.2-2.1,0.5-3c0.4-1,0.9-1.8,1.6-2.5c0.7-0.7,1.6-1.3,2.6-1.8c1-0.4,2.3-0.7,3.6-0.7c1.4,0,2.6,0.2,3.6,0.7
			c1.1,0.4,1.9,1,2.6,1.8c0.7,0.7,1.2,1.6,1.6,2.5c0.4,1,0.5,2,0.5,3c0,1.1-0.2,2.1-0.5,3c-0.4,1-0.9,1.8-1.6,2.5s-1.6,1.3-2.6,1.8
			C85.2,46.8,84,47,82.7,47z M79.9,39c0,1,0.3,1.8,0.8,2.4s1.2,0.9,2,0.9s1.5-0.3,2-0.9s0.8-1.4,0.8-2.4c0-1-0.3-1.8-0.8-2.4
			s-1.2-0.9-2-0.9s-1.5,0.3-2,0.9S79.9,38,79.9,39z"/>
		<path class="st0" d="M94.1,37.3h-1.9v-4.2h1.9v-1.7c0-1,0.2-1.8,0.5-2.6c0.3-0.8,0.8-1.5,1.4-2c0.6-0.6,1.4-1,2.2-1.3
			s1.8-0.5,2.8-0.5c1.1,0,2.2,0.2,3.3,0.6c1.1,0.4,2.2,1,3.4,1.8l-2.1,4.2c-0.7-0.6-1.4-1-2.1-1.4c-0.7-0.3-1.4-0.5-2.1-0.5
			c-0.6,0-1,0.1-1.3,0.4c-0.3,0.2-0.5,0.6-0.5,1.1v1.9h8.7v13.6h-5.6v-9.4h-3.2v9.4h-5.6V37.3z"/>
		<path class="st0" d="M111.1,25.3h5.6v14.9c0,1.2,0.5,1.8,1.4,1.8c0.2,0,0.5,0,0.8-0.1c0.3-0.1,0.5-0.2,0.8-0.3l0.7,4.5
			c-0.7,0.3-1.4,0.6-2.2,0.7c-0.8,0.2-1.6,0.3-2.4,0.3c-1.5,0-2.6-0.4-3.4-1.1c-0.8-0.8-1.2-1.9-1.2-3.3V25.3z"/>
		<path class="st0" d="M129.2,47c-1.3,0-2.5-0.2-3.6-0.6s-1.9-1-2.6-1.7c-0.7-0.7-1.3-1.6-1.6-2.5s-0.6-1.9-0.6-3
			c0-1.1,0.2-2.2,0.5-3.2c0.4-1,0.9-1.9,1.6-2.6c0.7-0.7,1.6-1.3,2.6-1.8c1-0.4,2.3-0.7,3.6-0.7c1.4,0,2.6,0.2,3.6,0.7
			c1.1,0.4,1.9,1,2.6,1.8c0.7,0.7,1.2,1.6,1.6,2.5c0.4,1,0.5,2,0.5,3c0,0.3,0,0.6,0,0.9c0,0.3-0.1,0.6-0.1,0.8h-10.8
			c0.1,0.8,0.4,1.4,0.9,1.8s1.1,0.5,1.8,0.5c0.6,0,1.2-0.1,1.7-0.4c0.5-0.3,0.9-0.7,1.1-1.1l4.7,1.3c-0.6,1.2-1.6,2.2-2.9,3
			C132.7,46.6,131.1,47,129.2,47z M131.7,37.4c-0.1-0.7-0.4-1.3-0.8-1.8c-0.4-0.4-1-0.6-1.7-0.6c-0.7,0-1.3,0.2-1.7,0.6
			c-0.4,0.4-0.7,1-0.8,1.8H131.7z"/>
	</g>
</g>
</svg>
